<svg width="80" height="80" viewBox="0 0 80 80" fill="none" xmlns="http://www.w3.org/2000/svg">
<path d="M0 20C0 8.95431 8.95431 0 20 0H60C71.0457 0 80 8.95431 80 20V60C80 71.0457 71.0457 80 60 80H20C8.95431 80 0 71.0457 0 60V20Z" fill="#FD504F"/>
<path fill-rule="evenodd" clip-rule="evenodd" d="M54.0175 19.4482H31.7124V23.7293C31.7124 24.7306 30.8834 25.5444 29.8632 25.5444H25.5017V32.0018L30.907 41.1913H50.0092C50.4142 41.1913 50.7425 41.5136 50.7425 41.9111C50.7425 42.3087 50.4142 42.631 50.0092 42.631H31.7537L33.1642 45.0289H46.7993C48.8513 42.8581 51.7859 41.7695 54.7826 42.0528V20.1993C54.7826 19.7857 54.439 19.4482 54.0175 19.4482ZM19.4229 33.8937L18.2649 31.925C17.7186 30.9962 18.0447 29.8012 18.9911 29.265L19.6783 28.8755C20.6246 28.3392 21.842 28.6594 22.3884 29.5882L23.5464 31.5569L19.4229 33.8937ZM32.0542 51.162L28.3433 49.059L32.4667 46.7222V50.9283C32.4667 51.1356 32.237 51.2657 32.0542 51.162ZM27.6099 47.8123L20.1563 35.1404L24.2797 32.8036L31.7333 45.4755L27.6099 47.8123ZM53.8495 43.448C58.3509 43.448 62 47.0298 62 51.4481C62 55.8665 58.3509 59.4482 53.8495 59.4482C49.3482 59.4482 45.699 55.8665 45.699 51.4481C45.699 47.0298 49.3482 43.448 53.8495 43.448ZM57.9299 55.0491C57.0936 53.6133 55.5348 52.7235 53.8497 52.7235C52.1643 52.7235 50.6055 53.6135 49.7693 55.0495C49.5683 55.3942 49.6902 55.8336 50.0414 56.0308C50.3926 56.228 50.8403 56.1083 51.0412 55.7636C51.62 54.7695 52.6832 54.1632 53.8497 54.1632C55.016 54.1632 56.0792 54.7694 56.658 55.7633C56.859 56.108 57.3066 56.2276 57.6577 56.0304C58.0089 55.8332 58.1307 55.3937 57.9299 55.0491ZM56.8119 47.4897C56.0019 47.4897 55.3452 48.1343 55.3452 48.9294C55.3452 49.7246 56.0019 50.3691 56.8119 50.3691C57.622 50.3691 58.2787 49.7246 58.2787 48.9294C58.2787 48.1343 57.622 47.4897 56.8119 47.4897ZM50.8872 47.4897C50.0772 47.4897 49.4205 48.1343 49.4205 48.9294C49.4205 49.7246 50.0772 50.3691 50.8872 50.3691C51.6973 50.3691 52.354 49.7246 52.354 48.9294C52.354 48.1343 51.6973 47.4897 50.8872 47.4897ZM30.2457 19.5134V23.7293C30.2457 23.9361 30.0739 24.1048 29.8631 24.1048H25.568C25.6051 24.0251 25.6577 23.9517 25.7257 23.8849L30.0216 19.6682C30.0896 19.6014 30.1644 19.5497 30.2457 19.5134ZM33.9333 46.4685V48.8665H44.5965C44.8437 48.0114 45.2111 47.2062 45.6786 46.4685H33.9333ZM33.9333 50.3061V50.9283C33.9333 52.236 32.4746 53.0626 31.3209 52.4087L27.2696 50.1128L25.5017 47.1072V55.9478C25.5017 56.3614 25.8454 56.6988 26.2669 56.6988H45.8568C44.5698 54.8149 44.0266 52.5529 44.3027 50.306L33.9333 50.3061ZM50.0092 25.8411C50.4142 25.8411 50.7425 26.1634 50.7425 26.5609C50.7425 26.9584 50.4142 27.2807 50.0092 27.2807H33.7074C33.3025 27.2807 32.9741 26.9584 32.9741 26.5609C32.9741 26.1634 33.3025 25.8411 33.7074 25.8411H50.0092ZM50.0092 29.6787C50.4142 29.6787 50.7425 30.001 50.7425 30.3985C50.7425 30.796 50.4142 31.1183 50.0092 31.1183H30.2752C29.8702 31.1183 29.5418 30.796 29.5418 30.3985C29.5418 30.001 29.8702 29.6787 30.2752 29.6787H50.0092ZM50.0092 33.5162C50.4142 33.5162 50.7425 33.8385 50.7425 34.236C50.7425 34.6335 50.4142 34.9558 50.0092 34.9558H30.2752C29.8702 34.9558 29.5418 34.6335 29.5418 34.236C29.5418 33.8385 29.8702 33.5162 30.2752 33.5162H50.0092ZM50.0092 37.3538C50.4142 37.3538 50.7425 37.6761 50.7425 38.0736C50.7425 38.4711 50.4142 38.7934 50.0092 38.7934H30.2752C29.8702 38.7934 29.5418 38.4711 29.5418 38.0736C29.5418 37.6761 29.8702 37.3538 30.2752 37.3538H50.0092Z" fill="white"/>
</svg>
