<svg width="80" height="80" viewBox="0 0 80 80" fill="none" xmlns="http://www.w3.org/2000/svg">
<path d="M0 20C0 8.95431 8.95431 0 20 0H60C71.0457 0 80 8.95431 80 20V60C80 71.0457 71.0457 80 60 80H20C8.95431 80 0 71.0457 0 60V20Z" fill="#FD504F"/>
<path d="M49.4057 52.1139C47.8022 51.515 46.1962 50.9134 44.5901 50.3136C44.3895 50.238 44.2293 50.1116 44.1197 49.9527C44.0118 49.7945 43.9502 49.5969 43.9502 49.3777V48.301C43.9502 48.2932 43.9502 48.2838 43.9502 48.2769C43.9738 48.2554 44.0008 48.2331 44.0244 48.2133C44.983 47.3806 45.6928 46.2548 46.0174 44.9735H46.02C46.5958 44.9735 47.1193 44.7346 47.4995 44.3496C47.8772 43.9621 48.1116 43.4284 48.1116 42.8415V37.5822C48.1116 35.9451 47.4565 34.4567 46.3985 33.3799C45.3421 32.3032 43.8845 31.6337 42.2784 31.6337H37.8211C37.2453 31.6337 36.7049 31.7824 36.2294 32.06C35.8163 32.3032 35.4596 32.6417 35.1823 33.0663H35.0727C34.1959 33.0663 33.4 33.4289 32.8242 34.0167C32.2458 34.6062 31.8901 35.4175 31.8901 36.3112V42.8423C31.8901 43.4293 32.1244 43.9629 32.5038 44.3505C32.8815 44.7355 33.4051 44.9744 33.9809 44.9744H33.9834C34.3088 46.2557 35.0179 47.3815 35.9764 48.2142C36.0026 48.2339 36.027 48.2554 36.0506 48.2778V49.3786C36.0506 49.5977 35.9908 49.7954 35.8812 49.9535C35.7733 50.1116 35.6114 50.2388 35.4107 50.3144L30.5951 52.1148C29.8018 52.4096 29.1492 52.9312 28.6948 53.5938C28.2404 54.2589 27.985 55.0598 27.985 55.92V60.2753C27.985 60.7505 28.1763 61.181 28.4824 61.493C28.7884 61.8075 29.2116 62 29.6795 62H50.3255C50.7917 62 51.2141 61.8075 51.5201 61.493C51.8287 61.181 52.0176 60.7496 52.0176 60.2753V55.92C52.0176 55.0598 51.7646 54.2589 51.3077 53.5938C50.8516 52.9295 50.1991 52.4087 49.4057 52.1139ZM35.1915 44.1795C35.1393 43.8409 34.8518 43.602 34.5272 43.602V43.5994H33.98C33.7769 43.5994 33.5905 43.5143 33.4565 43.3751C33.3199 43.2385 33.2365 43.0486 33.2365 42.8415C33.2365 42.6344 33.3199 42.4444 33.4565 42.3078C33.5905 42.1686 33.7769 42.0835 33.98 42.0835H34.4581C34.7759 42.0835 35.0415 41.8592 35.1131 41.5576L35.9663 38.671C35.9781 38.6272 35.9975 38.5902 36.0211 38.5662C36.0447 38.5395 36.081 38.5172 36.124 38.5026C36.167 38.488 36.2074 38.4828 36.2412 38.4905C36.2749 38.4957 36.3128 38.512 36.3491 38.5395C37.8143 39.6361 39.0924 40.2711 40.5214 40.4327C41.8071 40.5788 43.1737 40.333 44.8708 39.6825V41.3977C44.8708 41.7776 45.1718 42.0844 45.5445 42.0844H46.02C46.2231 42.0844 46.4095 42.1695 46.546 42.3087C46.6801 42.4453 46.7635 42.6352 46.7635 42.8423C46.7635 43.0494 46.6801 43.2394 46.546 43.376C46.4095 43.5152 46.2231 43.6003 46.02 43.6003H45.4728C45.1187 43.6003 44.8304 43.8779 44.8009 44.231C44.6053 45.3981 44.0025 46.431 43.1493 47.1709C42.3012 47.9091 41.1993 48.3551 39.9996 48.3551C38.7999 48.3551 37.7005 47.9091 36.8499 47.1709C35.9849 46.4181 35.3779 45.3688 35.1915 44.1795ZM42.6932 53.2535C41.9311 53.7897 41.0037 54.1034 39.9996 54.1034C38.998 54.1034 38.0689 53.7888 37.306 53.2535C36.704 52.8298 36.2015 52.2669 35.8432 51.6138L35.8719 51.6018C36.3331 51.429 36.7133 51.1265 36.9805 50.7373C37.2478 50.3471 37.3962 49.877 37.3962 49.3777V49.144C38.1895 49.5195 39.0714 49.7309 39.9987 49.7309C40.9261 49.7309 41.808 49.5187 42.6013 49.144V49.3777C42.6013 49.877 42.7497 50.3471 43.0169 50.7373C43.2842 51.1274 43.6644 51.4316 44.1256 51.6018L44.1542 51.6138C43.7968 52.2669 43.2951 52.8298 42.6932 53.2535ZM38.2957 45.3542C38.5057 45.1128 38.7687 44.916 39.068 44.7793C39.3572 44.6478 39.6725 44.5748 40.0004 44.5748C40.3301 44.5748 40.6454 44.6478 40.9329 44.7793C41.2313 44.916 41.4943 45.1128 41.7051 45.3542C41.9538 45.6395 41.9302 46.0727 41.6503 46.3236C41.3729 46.5771 40.948 46.5522 40.6993 46.2677C40.6108 46.1655 40.5037 46.0847 40.3865 46.0314C40.2719 45.9781 40.1429 45.9489 40.0021 45.9489C39.8638 45.9489 39.7323 45.9781 39.6194 46.0314C39.4996 46.0847 39.3926 46.1655 39.304 46.2677C39.0579 46.553 38.6304 46.5771 38.3531 46.3236C38.0732 46.0727 38.047 45.6387 38.2957 45.3542ZM36.5607 21.5053C36.5607 20.5403 36.9477 19.6637 37.5715 19.0278C38.1929 18.3953 39.0528 18 39.9996 18C40.9464 18 41.8063 18.3944 42.4276 19.0278C43.0515 19.6637 43.4385 20.5403 43.4385 21.5053C43.4385 22.2633 43.1973 22.9697 42.7859 23.5489C42.3678 24.1384 41.77 24.5939 41.077 24.8276C40.9531 24.8688 40.8502 24.9471 40.7811 25.0467C40.7145 25.1421 40.6732 25.2659 40.6732 25.4051V26.5764C40.6732 26.9537 40.3722 27.263 39.9996 27.263C39.6269 27.263 39.326 26.9537 39.326 26.5764V25.4059C39.326 24.9771 39.4575 24.5775 39.6919 24.2467C39.9237 23.9175 40.2559 23.6666 40.6572 23.5308C41.0779 23.3873 41.4412 23.1097 41.6967 22.7488C41.9429 22.4008 42.0887 21.9694 42.0887 21.5062C42.0887 20.9192 41.8543 20.3882 41.4741 20.0006C41.0964 19.6156 40.5729 19.375 39.9996 19.375C39.4263 19.375 38.9053 19.6165 38.525 20.0006C38.1448 20.3882 37.9113 20.9192 37.9113 21.5062C37.9113 21.8834 37.6103 22.1928 37.2377 22.1928C36.8642 22.1928 36.5607 21.8834 36.5607 21.5053ZM40.6732 28.9577V28.9654C40.6732 29.3427 40.3722 29.652 39.9996 29.652C39.6269 29.652 39.326 29.3427 39.326 28.9654V28.9577C39.326 28.5804 39.6269 28.271 39.9996 28.271C40.3722 28.2702 40.6732 28.5796 40.6732 28.9577ZM58 35.793C58 36.551 57.7589 37.2591 57.35 37.8366C56.9293 38.4261 56.3341 38.8815 55.6411 39.1153C55.5172 39.1591 55.4143 39.2347 55.3443 39.3344C55.2752 39.4315 55.2364 39.5536 55.2364 39.6928V40.8641C55.2364 41.2439 54.9329 41.5507 54.5628 41.5507C54.1902 41.5507 53.8867 41.2439 53.8867 40.8641V39.6928C53.8867 39.264 54.0207 38.8644 54.2525 38.5335C54.4844 38.207 54.8166 37.9534 55.2179 37.8177C55.6386 37.6741 56.0019 37.3966 56.2574 37.0356C56.5061 36.6876 56.6519 36.2588 56.6519 35.793C56.6519 35.2087 56.415 34.675 56.0382 34.2874C55.6579 33.9024 55.1369 33.6609 54.5636 33.6609C53.9904 33.6609 53.4668 33.9024 53.0866 34.2874C52.7089 34.675 52.472 35.2078 52.472 35.793C52.472 36.1729 52.171 36.4796 51.7984 36.4796C51.4257 36.4796 51.1247 36.1729 51.1247 35.793C51.1247 34.828 51.5117 33.9514 52.1331 33.3155C52.7569 32.6821 53.6169 32.2877 54.5636 32.2877C55.5104 32.2877 56.3678 32.6821 56.9917 33.3155C57.6147 33.9514 58 34.828 58 35.793ZM55.2373 43.2471V43.2522C55.2373 43.6321 54.9338 43.9389 54.5636 43.9389C54.191 43.9389 53.8875 43.6321 53.8875 43.2522V43.2471C53.8875 42.8672 54.191 42.5579 54.5636 42.5579C54.9338 42.557 55.2373 42.8664 55.2373 43.2471ZM28.2252 37.8366C27.8045 38.4261 27.2093 38.8815 26.5163 39.1153C26.3924 39.1591 26.2895 39.2347 26.2204 39.3344C26.1513 39.4315 26.1125 39.5536 26.1125 39.6928V40.8641C26.1125 41.2439 25.8115 41.5507 25.4389 41.5507C25.0663 41.5507 24.7627 41.2439 24.7627 40.8641V39.6928C24.7627 39.264 24.8968 38.8644 25.1286 38.5335C25.3605 38.207 25.6927 37.9534 26.094 37.8177C26.5146 37.6741 26.878 37.3966 27.1335 37.0356C27.3822 36.6876 27.528 36.2588 27.528 35.793C27.528 35.2087 27.2911 34.675 26.9134 34.2874C26.5332 33.9024 26.0122 33.6609 25.4389 33.6609C24.8656 33.6609 24.3421 33.9024 23.9618 34.2874C23.5841 34.675 23.3472 35.2078 23.3472 35.793C23.3472 36.1729 23.0463 36.4796 22.6736 36.4796C22.301 36.4796 22 36.1729 22 35.793C22 34.828 22.387 33.9514 23.0083 33.3155C23.6322 32.6821 24.4921 32.2877 25.4389 32.2877C26.3857 32.2877 27.2431 32.6821 27.8669 33.3155C28.4908 33.9514 28.8752 34.828 28.8752 35.793C28.8752 36.5501 28.6333 37.2591 28.2252 37.8366ZM26.1125 43.2471V43.2522C26.1125 43.6321 25.8115 43.9389 25.4389 43.9389C25.0663 43.9389 24.7627 43.6321 24.7627 43.2522V43.2471C24.7627 42.8672 25.0663 42.5579 25.4389 42.5579C25.8115 42.5579 26.1125 42.8664 26.1125 43.2471Z" fill="white"/>
</svg>
