<svg width="80" height="80" viewBox="0 0 80 80" fill="none" xmlns="http://www.w3.org/2000/svg">
<path d="M0 20C0 8.95431 8.95431 0 20 0H60C71.0457 0 80 8.95431 80 20V60C80 71.0457 71.0457 80 60 80H20C8.95431 80 0 71.0457 0 60V20Z" fill="#FD504F"/>
<path fill-rule="evenodd" clip-rule="evenodd" d="M49.6886 41.8531C43.5812 41.1432 38.8364 35.995 38.8364 29.7581H38.1443V39.2508C38.1443 39.6429 37.8234 39.9612 37.427 39.9612H30.2617C29.8657 39.9612 29.5443 39.6429 29.5443 39.2508V29.7581H18V61H49.6886V41.8531ZM42.1211 49.8986C41.9996 49.6575 41.7509 49.5055 41.4793 49.5055C41.2076 49.5055 40.9594 49.6575 40.8379 49.8986L37.2863 56.9311C37.1754 57.1513 37.1869 57.4132 37.3179 57.6225C37.4485 57.8318 37.6795 57.9592 37.9282 57.9592H45.0308C45.2795 57.9592 45.51 57.8318 45.6411 57.6225C45.7717 57.4132 45.7836 57.1513 45.6722 56.9311L42.1211 49.8986ZM32.3598 51.5793H21.7878C21.3918 51.5793 21.0704 51.8975 21.0704 52.2896V57.2488C21.0704 57.6414 21.3918 57.9592 21.7878 57.9592H32.3598C32.7563 57.9592 33.0772 57.6414 33.0772 57.2488V52.2896C33.0772 51.8975 32.7563 51.5793 32.3598 51.5793Z" fill="white"/>
<path fill-rule="evenodd" clip-rule="evenodd" d="M27.7914 53H31.6424V56.5385H27.7914V53Z" fill="white"/>
<path fill-rule="evenodd" clip-rule="evenodd" d="M26.3567 53V56.5385H22.5052V53H26.3567Z" fill="white"/>
<path fill-rule="evenodd" clip-rule="evenodd" d="M41.4793 51.8042L43.8701 56.5385H39.0889L41.4793 51.8042Z" fill="white"/>
<path fill-rule="evenodd" clip-rule="evenodd" d="M36.7096 29.7581V38.5405H30.979V29.7581H36.7096Z" fill="white"/>
<path fill-rule="evenodd" clip-rule="evenodd" d="M51.1353 19C57.1318 19 62 23.8205 62 29.7581C62 35.6957 57.1318 40.5162 51.1353 40.5162C45.1394 40.5162 40.2712 35.6957 40.2712 29.7581C40.2712 23.8205 45.1394 19 51.1353 19ZM52.1502 29.7581L56.4364 25.514C56.7162 25.2369 56.7162 24.7866 56.4364 24.5095C56.1561 24.232 55.7018 24.232 55.4215 24.5095L51.1353 28.7537L46.8497 24.5095C46.5694 24.232 46.115 24.232 45.8348 24.5095C45.555 24.7866 45.555 25.2369 45.8348 25.514L50.121 29.7581L45.8348 34.0022C45.555 34.2793 45.555 34.7296 45.8348 35.0067C46.115 35.2842 46.5694 35.2842 46.8497 35.0067L51.1353 30.7625L55.4215 35.0067C55.7018 35.2842 56.1561 35.2842 56.4364 35.0067C56.7162 34.7296 56.7162 34.2793 56.4364 34.0022L52.1502 29.7581Z" fill="white"/>
</svg>
