<svg width="80" height="80" viewBox="0 0 80 80" fill="none" xmlns="http://www.w3.org/2000/svg">
<path d="M0 20C0 8.95431 8.95431 0 20 0H60C71.0457 0 80 8.95431 80 20V60C80 71.0457 71.0457 80 60 80H20C8.95431 80 0 71.0457 0 60V20Z" fill="#FD504F"/>
<path fill-rule="evenodd" clip-rule="evenodd" d="M39.2308 21.9432C39.2308 20.8973 38.8308 19.8944 38.119 19.155C37.4072 18.4153 36.4416 18 35.4351 18C31.6509 18 25.58 18 21.7959 18C20.7891 18 19.8237 18.4153 19.1118 19.155C18.4 19.8944 18 20.8973 18 21.9432V54.3545C18 55.4003 18.4 56.4032 19.1118 57.1427C19.8237 57.8823 20.7891 58.2976 21.7959 58.2976H35.4351C36.4416 58.2976 37.4072 57.8823 38.119 57.1427C38.8308 56.4032 39.2308 55.4003 39.2308 54.3545C39.2308 46.8539 39.2308 29.4438 39.2308 21.9432ZM38.4588 32.7497V54.3545C38.4588 55.1875 38.1403 55.9866 37.5732 56.5757C37.0061 57.1648 36.2369 57.4957 35.4351 57.4957C31.6509 57.4957 25.58 57.4957 21.7959 57.4957C20.9938 57.4957 20.2248 57.1648 19.6577 56.5757C19.0906 55.9866 18.772 55.1875 18.772 54.3545V32.7497H38.4588Z" fill="white"/>
<path fill-rule="evenodd" clip-rule="evenodd" d="M39.2308 46.2963C39.2308 46.075 39.0579 45.8954 38.8449 45.8954H18.3861C18.1728 45.8954 18 46.075 18 46.2963V54.3545C18 55.4003 18.4 56.4032 19.1118 57.1427C19.8237 57.8823 20.7891 58.2976 21.7959 58.2976H35.4351C36.4416 58.2976 37.4072 57.8823 38.119 57.1427C38.8308 56.4032 39.2308 55.4003 39.2308 54.3545V46.2963ZM30.3204 54.4988H35.4351C35.648 54.4988 35.821 54.3191 35.821 54.0977C35.821 53.8764 35.648 53.6968 35.4351 53.6968H30.3204C30.1073 53.6968 29.9343 53.8764 29.9343 54.0977C29.9343 54.3191 30.1073 54.4988 30.3204 54.4988ZM21.7959 54.4988H28.0472C28.2602 54.4988 28.4331 54.3191 28.4331 54.0977C28.4331 53.8764 28.2602 53.6968 28.0472 53.6968H21.7959C21.5828 53.6968 21.4099 53.8764 21.4099 54.0977C21.4099 54.3191 21.5828 54.4988 21.7959 54.4988ZM33.2499 50.4962H35.4351C35.648 50.4962 35.821 50.3166 35.821 50.0953C35.821 49.874 35.648 49.6942 35.4351 49.6942H33.2499C33.0369 49.6942 32.8638 49.874 32.8638 50.0953C32.8638 50.3166 33.0369 50.4962 33.2499 50.4962ZM21.7959 50.4962H31.1694C31.3825 50.4962 31.5553 50.3166 31.5553 50.0953C31.5553 49.874 31.3825 49.6942 31.1694 49.6942H21.7959C21.5828 49.6942 21.4099 49.874 21.4099 50.0953C21.4099 50.3166 21.5828 50.4962 21.7959 50.4962Z" fill="white"/>
<path fill-rule="evenodd" clip-rule="evenodd" d="M40.0028 32.2443L44.5285 24.1008C44.9965 23.2588 45.7672 22.6445 46.6711 22.3927C47.5752 22.1412 48.5384 22.2728 49.3489 22.759C52.3692 24.5706 57.2152 27.477 60.2357 29.2887C61.0462 29.7748 61.6376 30.5754 61.8797 31.5147C62.122 32.4537 61.9951 33.4543 61.5272 34.2963C58.2 40.2832 50.4768 54.1801 47.1495 60.167C46.6815 61.009 45.9108 61.6234 45.0069 61.8751C44.1028 62.1267 43.1396 61.995 42.3291 61.5089L37.4774 58.5988L37.4869 58.5938L37.5365 58.5675L37.5858 58.5405L37.6349 58.513L37.6701 58.4926L37.6836 58.4847L37.7175 58.4645L37.7322 58.4558L37.7648 58.436L37.7802 58.4264L37.8116 58.4068L37.8279 58.3964L37.8581 58.3769L37.8754 58.3656L37.9043 58.3463L37.9224 58.3342L37.9502 58.3153L37.9691 58.3023L37.9956 58.2838L38.0156 58.2697L38.0408 58.2516L38.0616 58.2366L38.1071 58.2028L38.1525 58.1685L38.1974 58.1335L38.2179 58.1171L42.7152 60.8143C43.3482 61.1942 44.1008 61.297 44.807 61.1005C45.5132 60.9038 46.1153 60.424 46.481 59.7661L56.0499 42.5483L40.3881 33.1546L40.0028 33.8481V32.2443Z" fill="white"/>
<path fill-rule="evenodd" clip-rule="evenodd" d="M40.0028 46.8415V50.8846L42.7711 52.5451C42.9555 52.6556 43.0188 52.9012 42.9123 53.0927C42.8058 53.2844 42.5696 53.3502 42.385 53.2396L40.0028 51.8105V54.3545C40.0028 54.6934 39.9677 55.0285 39.9001 55.3545C40.0194 55.266 40.1825 55.2523 40.3177 55.3333L44.4003 57.782C44.5849 57.8927 44.648 58.1381 44.5417 58.3298C44.4352 58.5215 44.1988 58.5871 44.0144 58.4764L39.9318 56.0279C39.8582 55.9837 39.804 55.9182 39.7721 55.8432C39.5503 56.5403 39.1739 57.181 38.6648 57.7097C38.3143 58.074 37.9126 58.3727 37.4774 58.5988L42.3291 61.5089C43.1396 61.995 44.1028 62.1267 45.0069 61.8751C45.9108 61.6234 46.6815 61.009 47.1495 60.167L50.7241 53.7351C50.8306 53.5433 50.7675 53.2981 50.5827 53.1874L40.0028 46.8415ZM44.0457 54.2355L45.79 55.2818C45.9743 55.3924 46.2107 55.3266 46.3171 55.1349C46.4236 54.9432 46.3604 54.6978 46.1759 54.5872L44.4316 53.5411C44.2471 53.4305 44.0109 53.4961 43.9044 53.6878C43.7979 53.8795 43.8612 54.1249 44.0457 54.2355Z" fill="white"/>
</svg>
