<svg width="80" height="80" viewBox="0 0 80 80" fill="none" xmlns="http://www.w3.org/2000/svg">
<path d="M0 20C0 8.95431 8.95431 0 20 0H60C71.0457 0 80 8.95431 80 20V60C80 71.0457 71.0457 80 60 80H20C8.95431 80 0 71.0457 0 60V20Z" fill="#FD504F"/>
<path d="M52.6959 41.1449C52.9523 43.495 52.6217 45.9267 51.6088 48.2238L55.1248 52.6091C55.4395 53.0016 56.0295 53.0554 56.4192 52.7318C59.5763 50.1084 61.6653 46.3217 61.9749 42.0606C62.011 41.5645 61.5976 41.145 61.0826 41.145L52.6959 41.1449Z" fill="white"/>
<path d="M43.8679 18.8635V29.5845C46.8466 30.8292 49.3193 32.9966 50.8981 35.7104H61.1056C61.6104 35.7104 62.0188 35.307 61.9993 34.82C61.6359 25.7062 54.1102 18.457 44.7998 18.0011C44.2918 17.9763 43.8679 18.3724 43.8679 18.8635Z" fill="white"/>
<path d="M38.1799 56.9099C30.053 56.9911 23.3371 50.6291 23.2714 42.7821C23.2051 34.8737 29.8494 28.4191 38.025 28.4191V24.2145C38.025 23.7225 37.5996 23.3289 37.0906 23.3515C26.4658 23.8228 18.0001 32.2891 18 42.665C18 53.3639 27.0759 62.0684 38.1564 61.9996C42.3351 61.9736 46.2088 60.7124 49.4065 58.5754C49.8272 58.2943 49.9157 57.7285 49.6025 57.3378L46.9359 54.0123C44.4963 55.802 41.4655 56.8771 38.1799 56.9099Z" fill="white"/>
<path d="M25.9528 42.665C25.9528 49.0921 31.3684 54.3212 38.0249 54.3212C44.6807 54.3212 50.0971 49.0931 50.0971 42.665C50.0971 36.238 44.6807 31.0087 38.0249 31.0087C31.3684 31.0087 25.9528 36.2378 25.9528 42.665ZM39.3659 34.9215V36.1567C40.7406 36.1567 41.9576 36.7213 42.8157 37.6051C43.3217 38.1264 43.294 38.9464 42.754 39.435C42.2174 39.9204 41.3722 39.9019 40.8588 39.3754C40.4744 38.9801 39.9505 38.7505 39.4204 38.7462C38.3353 38.7462 37.6018 38.7462 36.5213 38.7462C35.7697 38.7462 35.1624 39.3341 35.1624 40.0582C35.1624 40.7815 35.7721 41.3702 36.5222 41.3702H39.5286C41.7564 41.3702 43.5693 43.1207 43.5693 45.2717C43.5693 47.2817 41.9681 49.1741 39.3659 49.1741V50.4084C39.3659 51.1232 38.766 51.7032 38.0249 51.7032C37.2847 51.7032 36.684 51.1232 36.684 50.4084V49.1741C35.7394 49.1741 34.8088 49.0754 33.7187 48.3455C33.1108 47.9381 32.9597 47.131 33.3816 46.544C33.8036 45.9562 34.6395 45.8103 35.2474 46.2178C35.5692 46.4353 35.9689 46.5796 36.3666 46.5846H39.5286C40.2753 46.5846 40.8874 46.0025 40.8874 45.2717C40.8874 44.5484 40.2777 43.9597 39.5286 43.9597C38.1982 43.9597 37.924 43.9597 36.5222 43.9597C34.2935 43.9597 32.4805 42.2092 32.4805 40.0582C32.4805 38.0419 34.0874 36.1567 36.684 36.1567V34.9215C36.684 34.2068 37.2847 33.6267 38.0249 33.6267C38.766 33.6267 39.3659 34.2068 39.3659 34.9215Z" fill="white"/>
</svg>
