<svg width="72" height="82" viewBox="0 0 72 82" fill="none" xmlns="http://www.w3.org/2000/svg">
<path d="M7.22815 81.4093C-3.97825 47.9565 -8.30241 -17.4387 41.4002 4.35405C112.228 35.4094 38.5288 81.4093 7.22815 81.4093Z" fill="#FD504F"/>
<path d="M23.6543 53.8924C21.41 53.8829 19.4923 53.2911 17.9014 52.1168C16.3105 50.9426 15.0937 49.2333 14.2509 46.989C13.4081 44.7447 12.9867 42.0411 12.9867 38.8782C12.9867 35.7248 13.4081 33.0306 14.2509 30.7958C15.1031 28.5609 16.3247 26.8564 17.9156 25.6822C19.516 24.5079 21.4289 23.9208 23.6543 23.9208C25.8797 23.9208 27.7878 24.5126 29.3787 25.6964C30.9696 26.8706 32.1865 28.5751 33.0293 30.81C33.8816 33.0354 34.3077 35.7248 34.3077 38.8782C34.3077 42.0505 33.8863 44.7589 33.0435 47.0032C32.2007 49.238 30.9838 50.9473 29.3929 52.131C27.802 53.3053 25.8891 53.8924 23.6543 53.8924ZM23.6543 50.0998C25.624 50.0998 27.1628 49.1386 28.2708 47.2162C29.3882 45.2939 29.9469 42.5145 29.9469 38.8782C29.9469 36.4634 29.6912 34.4227 29.1798 32.756C28.678 31.0799 27.9535 29.8109 27.0066 28.9492C26.0691 28.078 24.9516 27.6424 23.6543 27.6424C21.6941 27.6424 20.1552 28.6083 19.0378 30.5401C17.9204 32.4719 17.3569 35.2513 17.3475 38.8782C17.3475 41.3024 17.5984 43.3526 18.1003 45.0287C18.6117 46.6954 19.3361 47.9596 20.2736 48.8214C21.2111 49.6736 22.338 50.0998 23.6543 50.0998ZM50.3837 24.3185V53.4094H45.9803V28.7219H45.8098L38.8496 33.2674V29.0628L46.1081 24.3185H50.3837Z" fill="white"/>
</svg>
