<svg width="72" height="82" viewBox="0 0 72 82" fill="none" xmlns="http://www.w3.org/2000/svg">
<path d="M63.9493 81.4093C75.1557 47.9565 79.4798 -17.4387 29.7772 4.35405C-41.0507 35.4094 32.6486 81.4093 63.9493 81.4093Z" fill="#FD504F"/>
<path d="M23.4261 51.483C21.1818 51.4735 19.2642 50.8816 17.6733 49.7074C16.0824 48.5331 14.8655 46.8239 14.0227 44.5795C13.1799 42.3352 12.7585 39.6316 12.7585 36.4688C12.7585 33.3153 13.1799 30.6212 14.0227 28.3864C14.875 26.1515 16.0966 24.447 17.6875 23.2727C19.2879 22.0985 21.2008 21.5114 23.4261 21.5114C25.6515 21.5114 27.5597 22.1032 29.1506 23.2869C30.7415 24.4612 31.9583 26.1657 32.8011 28.4006C33.6534 30.6259 34.0795 33.3153 34.0795 36.4688C34.0795 39.6411 33.6581 42.3494 32.8153 44.5938C31.9725 46.8286 30.7557 48.5379 29.1648 49.7216C27.5739 50.8958 25.661 51.483 23.4261 51.483ZM23.4261 47.6903C25.3958 47.6903 26.9347 46.7292 28.0426 44.8068C29.16 42.8845 29.7188 40.1051 29.7188 36.4688C29.7188 34.054 29.4631 32.0133 28.9517 30.3466C28.4498 28.6705 27.7254 27.4015 26.7784 26.5398C25.8409 25.6686 24.7235 25.233 23.4261 25.233C21.4659 25.233 19.9271 26.1989 18.8097 28.1307C17.6922 30.0625 17.1288 32.8419 17.1193 36.4688C17.1193 38.893 17.3703 40.9432 17.8722 42.6193C18.3835 44.286 19.108 45.5502 20.0455 46.4119C20.983 47.2642 22.1098 47.6903 23.4261 47.6903ZM39.1186 51V47.8182L48.9624 37.6193C50.0135 36.5114 50.88 35.5407 51.5618 34.7074C52.2531 33.8646 52.7692 33.0644 53.1101 32.3068C53.451 31.5492 53.6214 30.7443 53.6214 29.892C53.6214 28.9261 53.3942 28.0928 52.9396 27.392C52.4851 26.6818 51.8648 26.1373 51.0788 25.7585C50.2929 25.3703 49.4074 25.1761 48.4226 25.1761C47.3809 25.1761 46.4718 25.3892 45.6953 25.8153C44.9188 26.2415 44.3222 26.8428 43.9055 27.6193C43.4889 28.3958 43.2805 29.3049 43.2805 30.3466H39.0902C39.0902 28.5758 39.4974 27.0275 40.3118 25.7017C41.1262 24.3759 42.2436 23.3485 43.6641 22.6193C45.0845 21.8807 46.6991 21.5114 48.5078 21.5114C50.3355 21.5114 51.9453 21.8759 53.3374 22.6051C54.7389 23.3248 55.8326 24.3097 56.6186 25.5597C57.4046 26.8002 57.7976 28.2017 57.7976 29.7642C57.7976 30.8438 57.594 31.8996 57.1868 32.9318C56.7891 33.964 56.093 35.1146 55.0987 36.3835C54.1044 37.643 52.7218 39.1723 50.951 40.9716L45.1697 47.0227V47.2358H58.2663V51H39.1186Z" fill="white"/>
</svg>
