<svg width="72" height="82" viewBox="0 0 72 82" fill="none" xmlns="http://www.w3.org/2000/svg">
<path d="M7.22815 81.4093C-3.97825 47.9565 -8.30241 -17.4387 41.4002 4.35405C112.228 35.4094 38.5288 81.4093 7.22815 81.4093Z" fill="#FD504F"/>
<path d="M22.9261 51.483C20.6818 51.4735 18.7642 50.8816 17.1733 49.7074C15.5824 48.5331 14.3655 46.8239 13.5227 44.5795C12.6799 42.3352 12.2585 39.6316 12.2585 36.4688C12.2585 33.3153 12.6799 30.6212 13.5227 28.3864C14.375 26.1515 15.5966 24.447 17.1875 23.2727C18.7879 22.0985 20.7008 21.5114 22.9261 21.5114C25.1515 21.5114 27.0597 22.1032 28.6506 23.2869C30.2415 24.4612 31.4583 26.1657 32.3011 28.4006C33.1534 30.6259 33.5795 33.3153 33.5795 36.4688C33.5795 39.6411 33.1581 42.3494 32.3153 44.5938C31.4725 46.8286 30.2557 48.5379 28.6648 49.7216C27.0739 50.8958 25.161 51.483 22.9261 51.483ZM22.9261 47.6903C24.8958 47.6903 26.4347 46.7292 27.5426 44.8068C28.66 42.8845 29.2188 40.1051 29.2188 36.4688C29.2188 34.054 28.9631 32.0133 28.4517 30.3466C27.9498 28.6705 27.2254 27.4015 26.2784 26.5398C25.3409 25.6686 24.2235 25.233 22.9261 25.233C20.9659 25.233 19.4271 26.1989 18.3097 28.1307C17.1922 30.0625 16.6288 32.8419 16.6193 36.4688C16.6193 38.893 16.8703 40.9432 17.3722 42.6193C17.8835 44.286 18.608 45.5502 19.5455 46.4119C20.483 47.2642 21.6098 47.6903 22.9261 47.6903ZM48.7464 51.3977C46.7957 51.3977 45.0533 51.0616 43.5192 50.3892C41.9946 49.7169 40.7872 48.7841 39.897 47.5909C39.0163 46.3883 38.5429 44.9962 38.4766 43.4148H42.9368C42.9936 44.2765 43.2824 45.0246 43.8033 45.6591C44.3336 46.2841 45.0249 46.767 45.8771 47.108C46.7294 47.4489 47.6764 47.6193 48.718 47.6193C49.8639 47.6193 50.8771 47.4205 51.7578 47.0227C52.648 46.625 53.344 46.071 53.8459 45.3608C54.3478 44.6411 54.5987 43.8125 54.5987 42.875C54.5987 41.8996 54.3478 41.0426 53.8459 40.304C53.3535 39.5559 52.629 38.9687 51.6726 38.5426C50.7256 38.1165 49.5798 37.9034 48.2351 37.9034H45.7777V34.3239H48.2351C49.3146 34.3239 50.2616 34.1297 51.076 33.7415C51.8999 33.3532 52.5438 32.8134 53.0078 32.1222C53.4718 31.4214 53.7038 30.6023 53.7038 29.6648C53.7038 28.7652 53.5002 27.9839 53.093 27.321C52.6953 26.6487 52.1271 26.1231 51.3885 25.7443C50.6593 25.3655 49.7976 25.1761 48.8033 25.1761C47.8563 25.1761 46.9709 25.3513 46.147 25.7017C45.3326 26.0426 44.6697 26.535 44.1584 27.179C43.647 27.8134 43.3724 28.5758 43.3345 29.4659H39.0874C39.1347 27.8939 39.5987 26.5114 40.4794 25.3182C41.3696 24.125 42.5438 23.1922 44.0021 22.5199C45.4605 21.8475 47.0798 21.5114 48.8601 21.5114C50.7256 21.5114 52.3355 21.8759 53.6896 22.6051C55.0533 23.3248 56.1044 24.286 56.843 25.4886C57.5911 26.6913 57.9605 28.0076 57.951 29.4375C57.9605 31.0663 57.5059 32.4489 56.5874 33.5852C55.6783 34.7216 54.4661 35.4839 52.951 35.8722V36.0994C54.8828 36.393 56.379 37.16 57.4396 38.4006C58.5097 39.6411 59.04 41.1799 59.0305 43.017C59.04 44.6174 58.5949 46.0521 57.6953 47.321C56.8052 48.59 55.5883 49.589 54.0447 50.3182C52.5012 51.0379 50.7351 51.3977 48.7464 51.3977Z" fill="white"/>
</svg>
