<svg width="72" height="82" viewBox="0 0 72 82" fill="none" xmlns="http://www.w3.org/2000/svg">
<path d="M63.9493 81.4093C75.1557 47.9565 79.4798 -17.4387 29.7772 4.35405C-41.0507 35.4094 32.6486 81.4093 63.9493 81.4093Z" fill="#FD504F"/>
<path d="M22.9261 51.483C20.6818 51.4735 18.7642 50.8816 17.1733 49.7074C15.5824 48.5331 14.3655 46.8239 13.5227 44.5795C12.6799 42.3352 12.2585 39.6316 12.2585 36.4688C12.2585 33.3153 12.6799 30.6212 13.5227 28.3864C14.375 26.1515 15.5966 24.447 17.1875 23.2727C18.7879 22.0985 20.7008 21.5114 22.9261 21.5114C25.1515 21.5114 27.0597 22.1032 28.6506 23.2869C30.2415 24.4612 31.4583 26.1657 32.3011 28.4006C33.1534 30.6259 33.5795 33.3153 33.5795 36.4688C33.5795 39.6411 33.1581 42.3494 32.3153 44.5938C31.4725 46.8286 30.2557 48.5379 28.6648 49.7216C27.0739 50.8958 25.161 51.483 22.9261 51.483ZM22.9261 47.6903C24.8958 47.6903 26.4347 46.7292 27.5426 44.8068C28.66 42.8845 29.2188 40.1051 29.2188 36.4688C29.2188 34.054 28.9631 32.0133 28.4517 30.3466C27.9498 28.6705 27.2254 27.4015 26.2784 26.5398C25.3409 25.6686 24.2235 25.233 22.9261 25.233C20.9659 25.233 19.4271 26.1989 18.3097 28.1307C17.1922 30.0625 16.6288 32.8419 16.6193 36.4688C16.6193 38.893 16.8703 40.9432 17.3722 42.6193C17.8835 44.286 18.608 45.5502 19.5455 46.4119C20.483 47.2642 21.6098 47.6903 22.9261 47.6903ZM38.0078 45.3182V41.767L50.5788 21.9091H53.3771V27.1364H51.6016L42.6101 41.3693V41.5966H59.8402V45.3182H38.0078ZM51.8004 51V44.2386L51.8288 42.6193V21.9091H55.9908V51H51.8004Z" fill="white"/>
</svg>
