<svg width="72" height="82" viewBox="0 0 72 82" fill="none" xmlns="http://www.w3.org/2000/svg">
<path d="M7.22815 81.4093C-3.97825 47.9565 -8.30241 -17.4387 41.4002 4.35405C112.228 35.4094 38.5288 81.4093 7.22815 81.4093Z" fill="#FD504F"/>
<path d="M22.9261 51.483C20.6818 51.4735 18.7642 50.8816 17.1733 49.7074C15.5824 48.5331 14.3655 46.8239 13.5227 44.5795C12.6799 42.3352 12.2585 39.6316 12.2585 36.4688C12.2585 33.3153 12.6799 30.6212 13.5227 28.3864C14.375 26.1515 15.5966 24.447 17.1875 23.2727C18.7879 22.0985 20.7008 21.5114 22.9261 21.5114C25.1515 21.5114 27.0597 22.1032 28.6506 23.2869C30.2415 24.4612 31.4583 26.1657 32.3011 28.4006C33.1534 30.6259 33.5795 33.3153 33.5795 36.4688C33.5795 39.6411 33.1581 42.3494 32.3153 44.5938C31.4725 46.8286 30.2557 48.5379 28.6648 49.7216C27.0739 50.8958 25.161 51.483 22.9261 51.483ZM22.9261 47.6903C24.8958 47.6903 26.4347 46.7292 27.5426 44.8068C28.66 42.8845 29.2188 40.1051 29.2188 36.4688C29.2188 34.054 28.9631 32.0133 28.4517 30.3466C27.9498 28.6705 27.2254 27.4015 26.2784 26.5398C25.3409 25.6686 24.2235 25.233 22.9261 25.233C20.9659 25.233 19.4271 26.1989 18.3097 28.1307C17.1922 30.0625 16.6288 32.8419 16.6193 36.4688C16.6193 38.893 16.8703 40.9432 17.3722 42.6193C17.8835 44.286 18.608 45.5502 19.5455 46.4119C20.483 47.2642 21.6098 47.6903 22.9261 47.6903ZM48.2209 51.3977C46.4406 51.3977 44.8402 51.0568 43.4197 50.375C42.0088 49.6837 40.8819 48.7367 40.0391 47.5341C39.1963 46.3314 38.7464 44.9583 38.6896 43.4148H42.951C43.0552 44.6648 43.6091 45.6922 44.6129 46.4972C45.6167 47.3021 46.8194 47.7045 48.2209 47.7045C49.3383 47.7045 50.3279 47.4489 51.1896 46.9375C52.0608 46.4167 52.7427 45.7017 53.2351 44.7926C53.737 43.8835 53.9879 42.8466 53.9879 41.6818C53.9879 40.4981 53.7322 39.4422 53.2209 38.5142C52.7095 37.5862 52.004 36.857 51.1044 36.3267C50.2143 35.7964 49.1915 35.5265 48.0362 35.517C47.1555 35.517 46.2701 35.6686 45.38 35.9716C44.4898 36.2746 43.7701 36.6723 43.2209 37.1648L39.201 36.5682L40.8345 21.9091H56.8288V25.6733H44.4851L43.5618 33.8125H43.7322C44.3004 33.2633 45.0533 32.804 45.9908 32.4347C46.9377 32.0653 47.951 31.8807 49.0305 31.8807C50.8014 31.8807 52.3781 32.3021 53.7607 33.1449C55.1527 33.9877 56.2464 35.1383 57.0419 36.5966C57.8468 38.0455 58.2446 39.7121 58.2351 41.5966C58.2446 43.4811 57.8184 45.1619 56.9567 46.6392C56.1044 48.1165 54.9207 49.2812 53.4055 50.1335C51.8999 50.9763 50.1716 51.3977 48.2209 51.3977Z" fill="white"/>
</svg>
