<svg width="17" height="17" viewBox="0 0 17 17" fill="none" xmlns="http://www.w3.org/2000/svg">
<path d="M15.7731 7.73245L11.4002 3.60946C11.0191 3.25011 10.4128 3.26157 10.046 3.63501C9.67929 4.00846 9.69087 4.60248 10.0721 4.96183L12.7185 7.45698L0.963317 7.3895C0.961329 7.3895 0.959573 7.3895 0.957585 7.3895C0.431315 7.3895 0.00316648 7.80603 8.28866e-06 8.32236C-0.0031499 8.84065 0.423127 9.26325 0.952087 9.26622L12.7127 9.33382L10.079 11.7682C9.69425 12.1239 9.67659 12.7178 10.0395 13.0947C10.2279 13.2904 10.4818 13.3892 10.7364 13.3891C10.9721 13.3891 11.2084 13.3043 11.3934 13.1333L15.7664 9.09124C15.957 8.915 16.0655 8.67001 16.0669 8.41333C16.0681 8.15654 15.9619 7.91052 15.7731 7.73245Z" fill="white"/>
</svg>
