<svg width="60" height="60" viewBox="0 0 60 60" fill="none" xmlns="http://www.w3.org/2000/svg">
<path d="M17.6392 18.8068C13.667 18.8068 10.4164 22.066 10.4164 26.0486V27.7345C10.4164 31.713 13.667 34.9762 17.6392 34.9762C21.6115 34.9762 24.8621 31.713 24.8621 27.7345V26.0486C24.8621 22.066 21.6115 18.8068 17.6392 18.8068ZM26.067 45.6536L23.2266 41.937C23.0466 41.6981 23.0926 41.3601 23.3309 41.1796C23.5651 40.999 23.9063 41.0411 24.0863 41.28L26.8726 44.9274L39.959 44.8812C40.1553 44.8812 40.3191 44.7156 40.3191 44.5202V41.8732C40.3191 41.2339 39.7979 40.7113 39.1602 40.7113H30.6823C30.44 40.7113 30.2329 40.5497 30.1638 40.3271C29.5261 38.7417 28.4255 37.3911 27.0323 36.4409C25.6703 35.5138 24.0268 34.9708 22.2627 34.9708H21.7414C20.5324 35.6631 19.1285 36.0635 17.6392 36.0635C16.15 36.0635 14.7501 35.6631 13.537 34.9708H13.0158C8.31789 34.9708 4.5 38.8299 4.5 43.5089L4.52708 58.2571C4.52708 59.2154 5.30961 60 6.26544 60H8.29217C9.20603 60 9.95336 59.2494 9.95336 58.3345V44.9287C9.95336 44.2175 11.0351 44.2175 11.0351 44.9287V55.7676H26.067V45.6536ZM52.4714 0H26.7088C25.0476 0 23.6842 1.36555 23.6842 3.03651V14.9572C23.6842 16.6228 25.0462 17.9897 26.7088 17.9897H33.9045C34.1848 17.9897 34.419 18.2096 34.442 18.4865C34.6844 20.7642 34.1509 22.9347 32.7876 24.7808C35.4466 23.6148 37.4462 21.2447 38.134 18.405C38.1949 18.1594 38.4143 17.9938 38.6593 17.9938V17.9897H52.4714C54.1367 17.9897 55.5 16.6241 55.5 14.9572V3.03516C55.4986 1.36555 54.1367 0 52.4714 0ZM51.0702 8.45256C51.7836 8.45256 51.7836 9.53712 51.0702 9.53712H45.5789C44.8695 9.53712 44.8695 8.45256 45.5789 8.45256H51.0702ZM42.09 8.45256C42.7994 8.45256 42.7994 9.53712 42.09 9.53712H36.5987C35.8852 9.53712 35.8852 8.45256 36.5987 8.45256H42.09ZM33.1058 8.45256C33.8192 8.45256 33.8192 9.53712 33.1058 9.53712H27.6172C26.9037 9.53712 26.9037 8.45256 27.6172 8.45256H33.1058Z" fill="#FD504F"/>
</svg>
