<svg width="60" height="60" viewBox="0 0 60 60" fill="none" xmlns="http://www.w3.org/2000/svg">
<path d="M31.9736 44.0348L30 42.6724L28.0264 44.0348L28.5633 45.5172H31.4367L31.9736 44.0348Z" fill="#FD504F"/>
<path d="M28.1095 51.5762L31.3379 48.0083L31.2716 47.5862H28.7284L28.1095 51.5762Z" fill="#FD504F"/>
<path d="M21.8695 38.0141L25.7528 43.02L28.2903 41.2676L24.069 37.381L21.8695 38.0141Z" fill="#FD504F"/>
<path d="M30 13.4483C30.2006 13.4505 30.4006 13.4692 30.5976 13.5041L34.8223 9.61345L36.4107 11.0762L32.5915 14.5935C32.8379 14.8693 33.0309 15.1821 33.1621 15.5183H43.4324C43.1739 12.6988 41.873 10.0464 39.7469 8.0038L37.5329 10.0428L35.9445 8.58001L38.0709 6.6207C36.0504 5.22272 33.6419 4.37926 31.1233 4.18759V7.24139H28.8767V4.18759C26.3581 4.37926 23.9496 5.22272 21.9291 6.6207L24.0544 8.57794L22.466 10.0407L20.252 8.00173C18.1256 10.0446 16.8247 12.6974 16.5664 15.5172H26.8368C27.0683 14.9142 27.4964 14.3918 28.0626 14.0215C28.6289 13.6511 29.3055 13.4509 30 13.4483Z" fill="#FD504F"/>
<path d="M34.4932 35.7786V34.6924C31.538 35.3324 28.462 35.3324 25.5068 34.6924V35.7786L30 39.9166L34.4932 35.7786Z" fill="#FD504F"/>
<path d="M30 28.9655C33.2863 28.9746 36.4613 27.87 38.9201 25.8621H21.0799C23.5387 27.87 26.7137 28.9746 30 28.9655Z" fill="#FD504F"/>
<path d="M30 17.5862C30.6204 17.5862 31.1233 17.1231 31.1233 16.5517C31.1233 15.9804 30.6204 15.5172 30 15.5172C29.3796 15.5172 28.8767 15.9804 28.8767 16.5517C28.8767 17.1231 29.3796 17.5862 30 17.5862Z" fill="#FD504F"/>
<path d="M30 33.1035C33.5547 33.1035 37.0295 32.1327 39.9852 30.314C42.9408 28.4953 45.2444 25.9102 46.6047 22.8858C47.965 19.8614 48.321 16.5334 47.6275 13.3226C46.934 10.1119 45.2222 7.16269 42.7087 4.84789C40.1952 2.53309 36.9927 0.956696 33.5063 0.318044C30.0199 -0.320608 26.4062 0.00717155 23.1221 1.25993C19.838 2.51269 17.031 4.63417 15.0561 7.35608C13.0813 10.078 12.0272 13.2781 12.0272 16.5517C12.0328 20.9399 13.9282 25.1469 17.2975 28.2498C20.6669 31.3527 25.235 33.0982 30 33.1035ZM42.3968 25.4648C40.926 27.2 39.0452 28.6037 36.8971 29.5691C34.749 30.5344 32.3902 31.0362 30 31.0362C27.6098 31.0362 25.251 30.5344 23.1029 29.5691C20.9548 28.6037 19.074 27.2 17.6033 25.4648C17.4735 25.3121 17.3931 25.1288 17.371 24.936C17.3489 24.7431 17.3862 24.5485 17.4785 24.3742C17.5708 24.1999 17.7144 24.053 17.8929 23.9503C18.0715 23.8475 18.2779 23.7931 18.4884 23.7931H41.5161C41.7266 23.7931 41.933 23.8475 42.1115 23.9503C42.2901 24.053 42.4337 24.1999 42.526 24.3742C42.6183 24.5485 42.6556 24.7431 42.6335 24.936C42.6114 25.1288 42.5309 25.3121 42.4012 25.4648H42.3968ZM14.2738 16.5517C14.2738 12.7107 15.9307 9.02692 18.8799 6.31087C21.8291 3.59483 25.8291 2.06897 30 2.06897C34.1709 2.06897 38.1709 3.59483 41.1201 6.31087C44.0694 9.02692 45.7262 12.7107 45.7262 16.5517C45.7262 16.8261 45.6079 17.0892 45.3972 17.2832C45.1866 17.4772 44.9008 17.5862 44.6029 17.5862H33.1632C32.9345 18.1909 32.507 18.7151 31.9402 19.086C31.3734 19.4569 30.6953 19.6562 30 19.6562C29.3047 19.6562 28.6266 19.4569 28.0598 19.086C27.493 18.7151 27.0655 18.1909 26.8368 17.5862H15.3971C15.0992 17.5862 14.8135 17.4772 14.6028 17.2832C14.3921 17.0892 14.2738 16.8261 14.2738 16.5517Z" fill="#FD504F"/>
<path d="M38.1305 38.0141L35.931 37.381L31.7097 41.2676L34.2472 43.02L38.1305 38.0141Z" fill="#FD504F"/>
<path d="M31.7658 50.7693L27.504 55.4793L26.9401 59.1134L32.1859 53.4766L31.7658 50.7693Z" fill="#FD504F"/>
<path d="M47.7369 40.7783L40.3872 38.6628L35.4064 45.0838C35.2386 45.3042 34.9828 45.4543 34.695 45.5014C34.4072 45.5485 34.1109 45.4888 33.8709 45.3352L33.3957 46.6459L35.4682 60H44.6029V50.6897H46.8495V60H52.466V46.7028C52.4705 45.3791 52.0134 44.089 51.1621 43.0225C50.3108 41.956 49.1101 41.1693 47.7369 40.7783Z" fill="#FD504F"/>
<path d="M29.071 60H33.198L32.6083 56.2003L29.071 60Z" fill="#FD504F"/>
<path d="M25.5068 45.5172C25.3281 45.5171 25.152 45.4777 24.9932 45.4023C24.8344 45.3269 24.6974 45.2177 24.5936 45.0838L19.6128 38.6628L12.2631 40.7783C10.8899 41.1693 9.68924 41.956 8.8379 43.0225C7.98656 44.089 7.5295 45.3791 7.53398 46.7028V60H13.1505V50.6897H15.3971V60H24.5318L26.6043 46.6459L26.1291 45.3352C25.946 45.4516 25.7293 45.515 25.5068 45.5172Z" fill="#FD504F"/>
<path d="M57.2816 6.33828L60 3.83483L58.4117 2.37208L55.0418 5.47552C54.8581 5.64463 54.7437 5.86714 54.7181 6.10516C54.6925 6.34319 54.7572 6.58203 54.9013 6.78104L56.6368 9.17897L52.7951 12.7169L54.3835 14.1797L58.8767 10.0417C59.0604 9.87262 59.1748 9.65012 59.2004 9.41209C59.226 9.17406 59.1612 8.93522 59.0171 8.73621L57.2816 6.33828Z" fill="#FD504F"/>
<path d="M5.09866 6.78104C5.24276 6.58203 5.30751 6.34319 5.28191 6.10516C5.25631 5.86714 5.14194 5.64463 4.95825 5.47552L1.58835 2.37208L0 3.83483L2.71839 6.33828L0.982888 8.73621C0.838795 8.93522 0.774038 9.17406 0.799639 9.41209C0.825239 9.65012 0.939616 9.87262 1.1233 10.0417L5.61651 14.1797L7.20485 12.7169L3.36316 9.17897L5.09866 6.78104Z" fill="#FD504F"/>
</svg>
