<svg width="60" height="60" viewBox="0 0 60 60" fill="none" xmlns="http://www.w3.org/2000/svg">
<path d="M54.1672 33.3195H38.6554C38.1184 33.3195 37.6847 33.7401 37.6847 34.2837C37.6847 34.8171 38.1081 35.2479 38.6554 35.2479H54.1569C54.6939 35.2479 55.1276 34.8171 55.1276 34.2837C55.138 33.7401 54.7042 33.3195 54.1672 33.3195Z" fill="#FD504F"/>
<path d="M46.401 40.0278C48.2186 40.0278 49.7574 38.8174 50.2531 37.166H42.5592C43.0446 38.8174 44.5834 40.0278 46.401 40.0278Z" fill="#FD504F"/>
<path d="M40.5557 37.166H38.6554C37.0444 37.166 35.7534 35.8633 35.7534 34.2837C35.7534 32.6836 37.0547 31.4014 38.6554 31.4014H39.8637C39.3164 30.0372 38.3766 28.8268 37.1373 27.9139C33.1509 25.0009 30.8686 20.5184 30.8686 15.636C30.8686 15.3898 30.8892 15.1334 30.9099 14.8974H2.88134C1.29092 14.8974 0 16.1796 0 17.7592V46.0796C0 47.6592 1.30125 48.9414 2.88134 48.9414H5.90727C7.44605 48.9414 8.84025 49.8543 9.44956 51.2698L11.7422 56.5933C11.9901 57.1677 12.4858 57.578 13.1055 57.7113C13.7354 57.8344 14.3551 57.66 14.8198 57.2395L22.6996 49.9671C23.4122 49.3004 24.3417 48.9414 25.3228 48.9414H42.5592C44.1496 48.9414 45.4405 47.6489 45.4405 46.0796V41.8741C42.9929 41.4638 41.0307 39.5765 40.5557 37.166ZM5.25664 20.0261H26.087C26.624 20.0261 27.0578 20.4569 27.0578 20.9903C27.0578 21.5236 26.624 21.9545 26.087 21.9545H5.25664C4.71962 21.9545 4.28587 21.5236 4.28587 20.9903C4.28587 20.4569 4.71962 20.0261 5.25664 20.0261ZM5.25664 27.1857H31.829C32.366 27.1857 32.7998 27.6062 32.7998 28.1499C32.7998 28.6832 32.366 29.114 31.829 29.114H5.25664C4.71962 29.114 4.28587 28.6832 4.28587 28.1499C4.28587 27.6062 4.71962 27.1857 5.25664 27.1857ZM5.25664 34.3247H31.829C32.366 34.3247 32.7998 34.7555 32.7998 35.2889C32.7998 35.8223 32.366 36.2531 31.829 36.2531H5.25664C4.71962 36.2531 4.28587 35.8223 4.28587 35.2889C4.28587 34.7658 4.71962 34.3247 5.25664 34.3247ZM36.8895 43.4024H5.25664C4.71962 43.4024 4.28587 42.9716 4.28587 42.4382C4.28587 41.9049 4.71962 41.4741 5.25664 41.4741H36.8895C37.4265 41.4741 37.8602 41.8946 37.8602 42.4382C37.8499 42.9716 37.4161 43.4024 36.8895 43.4024Z" fill="#FD504F"/>
<path d="M45.3682 18.7439H47.4544V31.4014H45.3682V18.7439Z" fill="#FD504F"/>
<path d="M39.6262 14.3846V14.9282C39.6262 15.9745 40.4834 16.8156 41.5265 16.8156H43.4267V14.3846C43.4267 13.3383 42.5695 12.4972 41.5265 12.4972C40.4834 12.4972 39.6262 13.3486 39.6262 14.3846Z" fill="#FD504F"/>
<path d="M53.1964 14.9282V14.3846C53.1964 13.3383 52.3392 12.4972 51.2962 12.4972C50.2531 12.4972 49.3959 13.3486 49.3959 14.3846V16.8156H51.2962C52.3496 16.8156 53.1964 15.9745 53.1964 14.9282Z" fill="#FD504F"/>
<path d="M47.1652 2.27073C43.3337 2.06559 39.7295 3.38878 36.9927 5.97361C34.2869 8.51742 32.7998 11.9433 32.7998 15.6257C32.7998 19.8927 34.793 23.811 38.2836 26.3548C40.0393 27.637 41.3096 29.4115 41.9292 31.3912H43.4267V18.7439H41.5161C39.399 18.7439 37.6847 17.0412 37.6847 14.9385V14.3948C37.6847 12.3024 39.399 10.5894 41.5161 10.5894C43.6332 10.5894 45.3579 12.3024 45.3579 14.3948V16.8258H47.444V14.3948C47.444 12.3024 49.1687 10.5894 51.2858 10.5894C53.3926 10.5894 55.1173 12.3024 55.1173 14.3948V14.9385C55.1173 17.0412 53.3926 18.7439 51.2858 18.7439H49.3753V31.4014H50.8624C51.4821 29.4218 52.7317 27.6472 54.4667 26.3959C58.0916 23.77 60.1467 19.5645 59.9918 15.1436C59.7749 8.30202 54.1259 2.62974 47.1652 2.27073Z" fill="#FD504F"/>
</svg>
