<svg width="60" height="60" viewBox="0 0 60 60" fill="none" xmlns="http://www.w3.org/2000/svg">
<path d="M38.3381 8.43561C38.3107 8.4369 38.2833 8.4369 38.2559 8.43432C38.1799 8.43303 38.1039 8.43303 38.0278 8.43303C27.5683 8.43303 19.0593 16.2265 19.0593 25.8063C19.0593 26.5799 19.1154 27.3521 19.2264 28.1157C19.2962 28.6004 19.3897 29.0802 19.5043 29.5562C19.5566 29.7694 19.5242 29.9938 19.4158 30.1847L15.7839 36.5947C15.6791 36.7807 15.6592 36.9567 15.7215 37.1625C15.7839 37.367 15.8985 37.5033 16.0942 37.6025L18.4336 38.7901C18.7564 38.9538 18.9447 39.2984 18.9047 39.6566L18.5931 42.4966L20.6123 43.5144C20.8727 43.6458 21.0497 43.8987 21.0846 44.1875C21.1182 44.4764 21.0048 44.7628 20.7817 44.9511L18.9919 46.4597L19.0368 48.8832C19.068 50.4785 20.247 51.7604 21.8399 51.9301L28.8781 52.6776C29.3082 52.7235 29.6396 53.0756 29.657 53.5056L29.9226 60H53.1013C48.8998 52.5151 49.2164 44.1527 54.0498 35.117C54.0648 35.0898 54.0809 35.0613 54.0996 35.0352C55.9966 32.2758 57 29.0838 57 25.8062C57.0001 16.3221 48.6568 8.58814 38.3381 8.43561ZM36.8799 37.4019C30.1158 37.4019 24.6131 31.9289 24.6131 25.2015C24.6131 18.4728 30.1158 12.9974 36.8799 12.9974C43.6451 12.9974 49.1491 18.4728 49.1491 25.2015C49.1491 31.9289 43.6451 37.4019 36.8799 37.4019ZM17.313 25.8064C17.313 26.099 17.3205 26.3904 17.3355 26.6828C14.7143 24.9387 13.0878 21.981 13.0878 18.7815C13.0878 13.5466 17.3716 9.28724 22.6375 9.28724C23.9188 9.28724 25.1789 9.54262 26.3467 10.0335C20.8964 13.4784 17.313 19.2637 17.313 25.8064ZM16.6413 31.5459C16.038 31.2646 15.461 30.9447 14.9163 30.5901C14.5698 30.3646 14.1124 30.4117 13.8207 30.7017L10.8655 33.6409L7.69734 30.4897L10.6525 27.5506C10.9441 27.2605 10.9916 26.8068 10.766 26.4634C9.81008 25.0057 9.14188 23.404 8.78051 21.702C8.69456 21.3003 8.33933 21.0128 7.92672 21.0128H3.75V16.5538H7.92661C8.33921 16.5538 8.69444 16.2663 8.78039 15.8646C9.14188 14.1638 9.80996 12.5611 10.7659 11.1045C10.9915 10.7599 10.944 10.3062 10.6524 10.0162L7.69734 7.07697L10.8656 3.92585L13.8208 6.86504C14.1125 7.15506 14.5686 7.20226 14.9152 6.97787C16.3797 6.02703 17.9912 5.36139 19.7025 5.00315C20.1051 4.91767 20.3942 4.56436 20.3942 4.15399V0H24.8774V4.15399C24.8774 4.56424 25.1666 4.91755 25.5704 5.00315C27.2816 5.36268 28.8919 6.02703 30.3577 6.97787C30.7029 7.20226 31.1592 7.15517 31.452 6.86504L34.4059 3.92585L37.2077 6.71251C33.951 6.83028 30.8848 7.64469 28.1802 8.99839C26.4914 8.05013 24.5869 7.55169 22.6375 7.55169C16.4093 7.55169 11.3429 12.5895 11.3429 18.7815C11.3429 23.0346 13.7722 26.9258 17.5723 28.8249C17.6185 29.0926 17.6708 29.3604 17.7293 29.6257L16.6413 31.5459ZM36.8799 14.6709C31.0431 14.6709 26.2944 19.3951 26.2944 25.2015C26.2944 31.0066 31.0431 35.7296 36.8799 35.7296C42.7179 35.7296 47.4678 31.0066 47.4678 25.2015C47.4678 19.3951 42.7179 14.6709 36.8799 14.6709ZM39.7415 28.3006C39.5733 28.4543 39.3626 28.5299 39.1508 28.5299C38.9153 28.5299 38.6808 28.4345 38.5089 28.2485L36.2368 25.7891C36.091 25.6304 36.0087 25.4234 36.0062 25.2089L35.9577 18.8373C35.9539 18.3588 36.3416 17.9671 36.8239 17.9633H36.8302C37.3088 17.9633 37.6988 18.3476 37.7026 18.8236L37.7499 24.8606L39.794 27.0747C40.1192 27.4267 40.0968 27.9758 39.7415 28.3006Z" fill="#FD504F"/>
</svg>
